<?xml version="1.0" encoding="utf-8"?>
<!-- Generator: Adobe Illustrator 18.1.1, SVG Export Plug-In . SVG Version: 6.00 Build 0)  -->
<!DOCTYPE svg PUBLIC "-//W3C//DTD SVG 1.1//EN" "http://www.w3.org/Graphics/SVG/1.1/DTD/svg11.dtd">
<svg version="1.1" id="Layer_1" xmlns="http://www.w3.org/2000/svg" xmlns:xlink="http://www.w3.org/1999/xlink" x="0px" y="0px"
	 viewBox="0 0 227.97203 35.66434" enable-background="new 0 0 227.97203 35.66434"
	 xml:space="preserve">
<g>
	<path fill="#FFFFFF" d="M21.53916,22.92239h-10.6999l-1.2177,2.6964c-0.1357,0.3095-0.7496,1.716-0.8555,1.9575
		c-0.1063,0.2415-0.2466,0.5655-0.4205,0.9711h-2.3775c0.15431-0.2509,0.372-0.6429,0.6522-1.1743
		c0.2802-0.5315,1.4545-2.8606,1.7253-3.3929c0.2704-0.5315,7.9159-16.455,7.9159-16.455l7.2492,15.2228
		c0.193,0.4065,2.1552,4.3547,2.4065,4.8283c0.25121,0.4736,0.4349,0.7968,0.551,0.9711h-2.5226
		c-0.213-0.5799-0.4256-1.1259-0.6377-1.6386c-0.213-0.5119-0.4163-0.9898-0.6093-1.4354L21.53916,22.92239z M11.53526,21.41469
		h9.3368l-4.6684-10.12L11.53526,21.41469z"/>
	<path fill="#FFFFFF" d="M143.34038,24.04589c0.27078,0.5324,2.22318,4.3164,2.37749,4.5672h-1.6687l-6.51091-8.8743
		l-2.08488-1.4118l-2.08492,1.4118l-6.51089,8.8743h-1.6687c0.1543-0.2508,2.1067-4.0348,2.3776-4.5672
		c0.2704-0.5314,7.88691-16.455,7.88691-16.455L143.34038,24.04589z"/>
	<path fill="#FFFFFF" d="M28.66537,14.04899c0-0.4056-0.00511-0.8792-0.01441-1.4201c-0.0102-0.5416-0.01959-1.0876-0.0294-1.6386
		c-0.0097-0.551,0.0166-2.4498-0.0025-2.7402h6.2998c3.34151,0,5.88951,2.0773,5.88951,5.3933c0,3.3594-2.10781,5.625-6.14721,5.625
		h-4.256v3.4796c0,0.3478,0.0625,4.0842,0.0723,4.5962c0.0094,0.5119,0.0243,0.9132,0.0434,1.2032h-1.97149
		c0.01909-0.29,0.03359-0.6913,0.04329-1.2032c0.0098-0.512,0.07271-4.2484,0.07271-4.5962V14.04899z M39.06856,13.64339
		c0-2.6031-2.0948-3.8274-4.1638-3.8274h-4.4996v7.8869h4.256C37.00766,17.70289,39.06856,16.58279,39.06856,13.64339z"/>
	<path fill="#FFFFFF" d="M44.66826,14.04899c0-0.4056-0.0051-0.8792-0.0145-1.4201c-0.0102-0.5416-0.0195-1.0876-0.0293-1.6386
		s0.0166-2.4498-0.0026-2.7402h6.2998c3.3415,0,5.8895,2.0773,5.8895,5.3933c0,3.3594-2.10779,5.625-6.1471,5.625h-4.256v3.4796
		c0,0.3478,0.0625,4.0842,0.07231,4.5962c0.00929,0.5119,0.02419,0.9132,0.04329,1.2032h-1.9715
		c0.0191-0.29,0.0336-0.6913,0.0434-1.2032c0.00981-0.512,0.0727-4.2484,0.0727-4.5962V14.04899z M55.07137,13.64339
		c0-2.6031-2.09471-3.8274-4.16371-3.8274h-4.4996v7.8869h4.256C53.01046,17.70289,55.07137,16.58279,55.07137,13.64339z"/>
	<path fill="#FFFFFF" d="M79.48546,18.48609c0,6.5451-5.3764,10.0613-11.3666,10.0613h-6.0609
		c0.0191-0.4056,0.0336-0.9371,0.04341-1.5944c0.00969-0.6573,0.07269-3.4116,0.07269-4.205v-8.699
		c0-0.8699-0.063-3.7687-0.07269-4.4073c-0.00981-0.6378-0.02431-1.1012-0.04341-1.3916h6.032
		C75.14306,8.25009,79.48546,12.48689,79.48546,18.48609z M75.91726,18.14339c0-3.3164-2.18909-6.5858-8.6981-6.5858h-1.5637
		v13.6827h1.5926C74.00206,25.24029,75.91726,21.89849,75.91726,18.14339z"/>
	<path fill="#FFFFFF" d="M107.35086,13.82749c0,0.7543,0.0098,1.5281,0.0289,2.3197c0,0.6965,0.0047,1.4745,0.0149,2.3342
		c0.0093,0.8606,0.01871,5.1258,0.0289,5.6666c0.0093,0.5408,0.0187,1.0918,0.0289,1.6522
		c0.0094,0.5612,0.0191,1.0978,0.02891,1.6097c0.00939,0.5119,0.02419,0.9133,0.04339,1.2032h-3.7132
		c0.0192-0.2899,0.0336-0.6913,0.0434-1.2032c0.0098-0.5119,0.0481-2.7211,0.0583-3.2619
		c0.0093-0.5408,0.0144-10.0043,0.0144-10.0043c0-1.2756-0.0102-2.421-0.02929-3.4354
		c-0.01921-1.0153-0.04851-1.8121-0.08681-2.3925h3.5682l11.56761,14.7852c-0.01921-0.6182-0.02861-1.1092-0.02861-1.8822
		c-0.0196-0.6573-0.0293-3.4417-0.0293-4.4672c0,0-0.0629-6.7202-0.0722-7.2321c-0.0102-0.5119-0.0247-0.9133-0.0438-1.2037h3.7135
		c-0.0195,0.2904-0.034,0.6918-0.0438,1.2037c-0.0097,0.5119-0.0191,1.0485-0.0289,1.6088
		c-0.0098,0.5613-0.0433,11.6566-0.0433,11.6566c0,1.2755,0.00929,2.4209,0.0289,3.4362c0.0191,1.0145,0.048,1.8121,0.0871,2.392
		h-3.56859L107.35086,13.82749z"/>
	<path fill="#FFFFFF" d="M160.41338,29.07739l-7.17-15.9133l-1.49883,9.6497c-0.213,1.199-0.39149,2.3299-0.5365,3.3929
		c-0.14499,1.0629-0.2368,1.8656-0.2755,2.4064h-3.85818c0.278-1.0682,0.42479-1.6573,0.58-2.5374
		c0.15428-0.8792,0.34779-1.9668,0.57988-3.2619l1.76871-10.0035c0.1544-0.9473,0.28999-1.7874,0.4061-2.5229
		c0.116-0.7339,0.2028-1.3912,0.261-1.9716h3.70711c0.07689,0.2904,0.38979,1.077,0.68221,1.8674
		c0.15289,0.413,5.354,12.1738,5.47009,12.4833c0.13519-0.3291,5.08891-10.7515,5.4198-11.4434
		c0.36011-0.7531,1.0266-2.0918,1.3642-2.9073h3.71359c0,0.1739,0.0144,0.4783,0.04332,0.9137
		c0.02899,0.4345,0.28488,3.4456,0.30449,3.5808l1.21809,10.0035c0.03821,0.3673,0.5072,3.9099,0.59442,4.4218
		c0.08669,0.5127,0.16878,0.9719,0.24619,1.3775h-3.8004c-0.0195-0.4056-0.0531-0.8648-0.1011-1.3775
		c-0.04849-0.5119-0.41119-4.0545-0.44949-4.4218l-0.96391-9.2869L160.41338,29.07739z"/>
	<path fill="#FFFFFF" d="M179.66737,14.11479c0-0.4057-0.06291-4.1319-0.07271-4.6242
		c-0.00981-0.4932-0.02429-0.8844-0.04341-1.1748h3.71321c-0.01921,0.2904-0.03409,0.6816-0.04341,1.1748
		c-0.0098,0.4923-0.0723,4.2185-0.0723,4.6242v8.699c0,0.3478,0.0625,4.0842,0.0723,4.5961
		c0.00932,0.5119,0.0242,0.9133,0.04341,1.2032h-3.71321c0.01912-0.2899,0.0336-0.6913,0.04341-1.2032
		c0.0098-0.5119,0.07271-4.2483,0.07271-4.5961V14.11479z"/>
	<path fill="#FFFFFF" d="M100.59146,8.23659h-4.0816c-0.35381,0.9305-6.2107,9.4154-6.2107,9.4154s-5.8982-8.4304-6.252-9.4154
		h-4.09521c0.116,0.1743,5.8719,9.049,8.5922,13.2055v1.3059c0,0.3478-0.0629,4.0843-0.0727,4.5962
		c-0.0098,0.5119-0.0242,0.9132-0.0434,1.2032h3.7132c-0.0192-0.29-0.034-0.6913-0.0434-1.2032
		c-0.0098-0.5119-0.0723-4.2484-0.0723-4.5962v-1.4024C94.75626,17.22879,100.27437,8.73429,100.59146,8.23659z"/>
	<path fill="#FFFFFF" d="M205.50485,27.62759c-2.00529,0.9556-3.50548,1.5655-6.63989,1.5655
		c-7.35091,0-10.75771-5.9065-10.75771-10.7577c0-4.836,3.4794-10.6995,10.75771-10.6995c3.3159,0,4.9725,0.8179,6.321,1.4792v3.887
		c-2.3638-1.3352-3.54941-2.0009-6.321-2.0009c-3.65021,0-7.18959,2.0266-7.18959,7.3342c0,5.5405,4.04739,7.3919,7.18959,7.3919
		c2.84419,0,5.2388-1.1257,6.63989-2.1454V27.62759z"/>
	<path fill="#FFFFFF" d="M216.62827,17.39119c2.64249,1.3054,5.3398,2.884,5.3398,6.2636c0,2.4254-1.9561,5.4226-6.6698,5.4226
		c-2.8031,0-5.10381-1.2049-6.09111-1.6474v-3.785c1.02361,0.5631,3.22031,2.1245,6.09111,2.1245
		c1.58099,0,3.18829-0.6689,3.18829-2.1088c0-2.9138-4.19659-3.7515-6.1946-4.9641c-1.8264-1.1084-3.08481-2.1074-3.08481-5.1564
		c0-2.8972,2.55621-5.6882,6.57622-5.6882c2.36549,0,4.36359,0.466,5.52008,1.102v3.7127
		c-1.8848-1.2009-3.11829-1.5655-5.40408-1.5655c-1.34241,0-3.21082,1.0294-3.21082,2.3879
		C212.68855,15.91159,214.37076,16.27599,216.62827,17.39119z"/>
</g>
</svg>
